<svg width="1260" height="310" viewBox="0 0 1260 310" fill="none" xmlns="http://www.w3.org/2000/svg">
<g clip-path="url(#clip0_22_206)">
<path fill-rule="evenodd" clip-rule="evenodd" d="M202.5 430C266.841 430 319 377.841 319 313.5C319 249.159 266.841 197 202.5 197C138.159 197 86 249.159 86 313.5C86 377.841 138.159 430 202.5 430ZM202.5 371.75C234.671 371.75 260.75 345.671 260.75 313.5C260.75 281.329 234.671 255.25 202.5 255.25C170.329 255.25 144.25 281.329 144.25 313.5C144.25 345.671 170.329 371.75 202.5 371.75Z" fill="#EE503F"/>
<path fill-rule="evenodd" clip-rule="evenodd" d="M0 189.5C32.5848 189.5 59 163.085 59 130.5C59 97.9152 32.5848 71.5 0 71.5C-32.5848 71.5 -59 97.9152 -59 130.5C-59 163.085 -32.5848 189.5 0 189.5ZM0 160C16.2924 160 29.5 146.792 29.5 130.5C29.5 114.208 16.2924 101 0 101C-16.2924 101 -29.5 114.208 -29.5 130.5C-29.5 146.792 -16.2924 160 0 160Z" fill="white"/>
<path fill-rule="evenodd" clip-rule="evenodd" d="M338.5 43.5C362.524 43.5 382 24.0244 382 0C382 -24.0244 362.524 -43.5 338.5 -43.5C314.476 -43.5 295 -24.0244 295 0C295 24.0244 314.476 43.5 338.5 43.5ZM338.5 21.75C350.512 21.75 360.25 12.0122 360.25 0C360.25 -12.0122 350.512 -21.75 338.5 -21.75C326.488 -21.75 316.75 -12.0122 316.75 0C316.75 12.0122 326.488 21.75 338.5 21.75Z" fill="#A354F2"/>
</g>
<g clip-path="url(#clip1_22_206)">
<path fill-rule="evenodd" clip-rule="evenodd" d="M1241.5 214C1347.81 214 1434 127.815 1434 21.5C1434 -84.8148 1347.81 -171 1241.5 -171C1135.19 -171 1049 -84.8148 1049 21.5C1049 127.815 1135.19 214 1241.5 214ZM1241.5 117.75C1294.66 117.75 1337.75 74.6574 1337.75 21.5C1337.75 -31.6574 1294.66 -74.75 1241.5 -74.75C1188.34 -74.75 1145.25 -31.6574 1145.25 21.5C1145.25 74.6574 1188.34 117.75 1241.5 117.75Z" fill="#EE503F"/>
<path fill-rule="evenodd" clip-rule="evenodd" d="M1034.5 363.5C1064.05 363.5 1088 339.547 1088 310C1088 280.453 1064.05 256.5 1034.5 256.5C1004.95 256.5 981 280.453 981 310C981 339.547 1004.95 363.5 1034.5 363.5ZM1034.5 336.75C1049.27 336.75 1061.25 324.774 1061.25 310C1061.25 295.226 1049.27 283.25 1034.5 283.25C1019.73 283.25 1007.75 295.226 1007.75 310C1007.75 324.774 1019.73 336.75 1034.5 336.75Z" fill="white"/>
<path fill-rule="evenodd" clip-rule="evenodd" d="M935 292.5C951.569 292.5 965 279.069 965 262.5C965 245.931 951.569 232.5 935 232.5C918.431 232.5 905 245.931 905 262.5C905 279.069 918.431 292.5 935 292.5ZM935 277.5C943.284 277.5 950 270.784 950 262.5C950 254.216 943.284 247.5 935 247.5C926.716 247.5 920 254.216 920 262.5C920 270.784 926.716 277.5 935 277.5Z" fill="#A354F2"/>
</g>
<defs>
<clipPath id="clip0_22_206">
<rect width="630" height="310" fill="white"/>
</clipPath>
<clipPath id="clip1_22_206">
<rect width="630" height="310" fill="white" transform="translate(630)"/>
</clipPath>
</defs>
</svg>
