<svg width="20" height="20" viewBox="0 0 20 20" fill="none" xmlns="http://www.w3.org/2000/svg">
<path d="M10 18.0003C14.42 18.0003 18 14.4203 18 10.0003C18 5.58025 14.42 2.00025 10 2.00025C5.58 2.00025 2 5.58025 2 10.0003C2 14.4203 5.58 18.0003 10 18.0003ZM10 0.000249863C15.5 0.000249863 20 4.50025 20 10.0003C20 15.5003 15.5 20.0003 10 20.0003C4.47 20.0003 0 15.5003 0 10.0003C0 4.50025 4.5 0.000249863 10 0.000249863ZM10.5 11.0003H9V5.00025H10.5V9.26025L14.2 7.13025L14.95 8.43025L10.5 11.0003Z" fill="#6B7280"/>
</svg>
