<svg width="22" height="22" viewBox="0 0 22 22" fill="none" xmlns="http://www.w3.org/2000/svg">
<path d="M15 14.0002H8V12.0002H15V14.0002ZM18 10.0002H8V8.00024H18V10.0002ZM18 6.00024H8V4.00024H18V6.00024ZM2 4.00024V20.0002H18V22.0002H2C1.46957 22.0002 0.960859 21.7895 0.585786 21.4145C0.210714 21.0394 0 20.5307 0 20.0002V4.00024H2ZM20 0.000244141C20.5304 0.000244141 21.0391 0.210958 21.4142 0.586031C21.7893 0.961103 22 1.46981 22 2.00024V16.0002C22 17.1102 21.11 18.0002 20 18.0002H6C5.46957 18.0002 4.96086 17.7895 4.58579 17.4145C4.21071 17.0394 4 16.5307 4 16.0002V2.00024C4 0.890244 4.89 0.000244141 6 0.000244141H20ZM6 2.00024V16.0002H20V2.00024H6Z" fill="#6B7280"/>
</svg>
