<svg width="18" height="18" viewBox="0 0 18 18" fill="none" xmlns="http://www.w3.org/2000/svg">
<path d="M9.00002 0.699951C4.41669 0.699951 0.666687 4.44162 0.666687 9.04995C0.666687 13.2166 3.71669 16.6749 7.70002 17.2999V11.4666H5.58335V9.04995H7.70002V7.20828C7.70002 5.11662 8.94169 3.96662 10.85 3.96662C11.7584 3.96662 12.7084 4.12495 12.7084 4.12495V6.18328H11.6584C10.625 6.18328 10.3 6.82495 10.3 7.48328V9.04995H12.6167L12.2417 11.4666H10.3V17.2999C12.2637 16.9898 14.0519 15.9879 15.3416 14.475C16.6314 12.9621 17.3378 11.038 17.3334 9.04995C17.3334 4.44162 13.5834 0.699951 9.00002 0.699951Z" fill="#D6B3F9"/>
</svg>
