<svg width="18" height="18" viewBox="0 0 18 18" fill="none" xmlns="http://www.w3.org/2000/svg">
<path d="M5.50002 0.666748H12.5C15.1667 0.666748 17.3334 2.83342 17.3334 5.50008V12.5001C17.3334 13.782 16.8241 15.0113 15.9177 15.9178C15.0113 16.8242 13.7819 17.3334 12.5 17.3334H5.50002C2.83335 17.3334 0.666687 15.1667 0.666687 12.5001V5.50008C0.666687 4.2182 1.17591 2.98882 2.08234 2.0824C2.98876 1.17597 4.21814 0.666748 5.50002 0.666748ZM5.33335 2.33341C4.5377 2.33341 3.77464 2.64949 3.21203 3.21209C2.64942 3.7747 2.33335 4.53777 2.33335 5.33342V12.6667C2.33335 14.3251 3.67502 15.6667 5.33335 15.6667H12.6667C13.4623 15.6667 14.2254 15.3507 14.788 14.7881C15.3506 14.2255 15.6667 13.4624 15.6667 12.6667V5.33342C15.6667 3.67508 14.325 2.33341 12.6667 2.33341H5.33335ZM13.375 3.58341C13.6513 3.58341 13.9162 3.69316 14.1116 3.88851C14.3069 4.08386 14.4167 4.34881 14.4167 4.62508C14.4167 4.90135 14.3069 5.1663 14.1116 5.36165C13.9162 5.557 13.6513 5.66675 13.375 5.66675C13.0988 5.66675 12.8338 5.557 12.6385 5.36165C12.4431 5.1663 12.3334 4.90135 12.3334 4.62508C12.3334 4.34881 12.4431 4.08386 12.6385 3.88851C12.8338 3.69316 13.0988 3.58341 13.375 3.58341ZM9.00002 4.83342C10.1051 4.83342 11.1649 5.2724 11.9463 6.0538C12.7277 6.83521 13.1667 7.89501 13.1667 9.00008C13.1667 10.1052 12.7277 11.165 11.9463 11.9464C11.1649 12.7278 10.1051 13.1667 9.00002 13.1667C7.89495 13.1667 6.83514 12.7278 6.05374 11.9464C5.27234 11.165 4.83335 10.1052 4.83335 9.00008C4.83335 7.89501 5.27234 6.83521 6.05374 6.0538C6.83514 5.2724 7.89495 4.83342 9.00002 4.83342ZM9.00002 6.50008C8.33698 6.50008 7.70109 6.76347 7.23225 7.23231C6.76341 7.70116 6.50002 8.33704 6.50002 9.00008C6.50002 9.66312 6.76341 10.299 7.23225 10.7678C7.70109 11.2367 8.33698 11.5001 9.00002 11.5001C9.66306 11.5001 10.2989 11.2367 10.7678 10.7678C11.2366 10.299 11.5 9.66312 11.5 9.00008C11.5 8.33704 11.2366 7.70116 10.7678 7.23231C10.2989 6.76347 9.66306 6.50008 9.00002 6.50008Z" fill="#D6B3F9"/>
</svg>
