<svg width="136" height="28" viewBox="0 0 136 28" fill="none" xmlns="http://www.w3.org/2000/svg">
<path d="M25.4092 12.1011H28.1658C28.26 12.1011 28.3503 12.1395 28.4169 12.208C28.4835 12.2764 28.5209 12.3692 28.5209 12.466V26.0366C28.5209 26.1334 28.4835 26.2262 28.4169 26.2947C28.3503 26.3631 28.26 26.4015 28.1658 26.4015H25.4092C25.315 26.4015 25.2247 26.3631 25.1581 26.2947C25.0915 26.2262 25.0541 26.1334 25.0541 26.0366V12.4648C25.0544 12.3682 25.0919 12.2757 25.1585 12.2075C25.2251 12.1394 25.3152 12.1011 25.4092 12.1011Z" fill="#3F0975"/>
<path d="M31.3818 12.1021H34.0011C34.0953 12.1021 34.1856 12.1405 34.2522 12.209C34.3188 12.2774 34.3562 12.3702 34.3562 12.467V13.7564C34.3557 14.0845 34.3376 14.4122 34.3018 14.7381H34.3562C34.9563 13.5326 36.4867 11.7651 39.2943 11.7651C42.3776 11.7651 44.1234 13.4195 44.1234 17.2051V26.0376C44.1234 26.1344 44.086 26.2272 44.0194 26.2957C43.9528 26.3641 43.8625 26.4025 43.7683 26.4025H41.0377C40.9435 26.4025 40.8532 26.3641 40.7866 26.2957C40.72 26.2272 40.6826 26.1344 40.6826 26.0376V17.9337C40.6826 16.1954 40.2459 15.0142 38.4728 15.0142C36.6169 15.0142 35.2534 16.2197 34.735 17.9337C34.5544 18.5515 34.4713 19.195 34.4888 19.8399V26.0437C34.4888 26.1405 34.4514 26.2333 34.3848 26.3017C34.3182 26.3702 34.2279 26.4086 34.1337 26.4086H31.3818C31.2876 26.4086 31.1973 26.3702 31.1307 26.3017C31.0641 26.2333 31.0267 26.1405 31.0267 26.0437V12.4658C31.027 12.3692 31.0646 12.2767 31.1312 12.2085C31.1977 12.1404 31.2878 12.1021 31.3818 12.1021Z" fill="#3F0975"/>
<path d="M44.8746 12.1011H47.7709C47.8444 12.101 47.916 12.1244 47.976 12.168C48.036 12.2116 48.0814 12.2732 48.1059 12.3444L50.911 20.9616C51.1845 21.8022 51.375 23.1196 51.4022 23.1196H51.4567C51.4839 23.1196 51.6745 21.8022 51.9479 20.9616L54.759 12.3492C54.7835 12.278 54.8288 12.2164 54.8888 12.1729C54.9488 12.1293 55.0205 12.1059 55.0939 12.1059H57.9914C58.0481 12.1061 58.104 12.1202 58.1543 12.1471C58.2046 12.174 58.2479 12.2129 58.2806 12.2606C58.3133 12.3082 58.3344 12.3632 58.3422 12.421C58.3499 12.4787 58.3441 12.5376 58.3252 12.5925L53.5907 26.1643C53.5663 26.2353 53.5211 26.2968 53.4614 26.3404C53.4016 26.3839 53.3302 26.4074 53.257 26.4076H49.6623C49.5893 26.4072 49.5181 26.3835 49.4586 26.34C49.3991 26.2965 49.3541 26.2351 49.3297 26.1643L44.5397 12.5889C44.5205 12.5337 44.5145 12.4747 44.5222 12.4167C44.5299 12.3587 44.551 12.3034 44.5839 12.2556C44.6167 12.2078 44.6603 12.1687 44.7109 12.1419C44.7615 12.115 44.8176 12.101 44.8746 12.1011Z" fill="#3F0975"/>
<path d="M64.9835 11.7651C68.9936 11.7651 71.1489 14.7661 71.1489 18.5504C71.1489 18.8108 71.1182 19.2742 71.0945 19.5905C71.0871 19.6819 71.0464 19.7671 70.9806 19.8291C70.9148 19.8911 70.8287 19.9253 70.7394 19.925H61.4646C61.6836 22.4199 63.5655 23.7069 65.6381 23.7069C67.3117 23.7069 68.7249 22.8299 69.3309 22.3859C69.3716 22.3566 69.4179 22.3365 69.4667 22.3267C69.5154 22.317 69.5657 22.3179 69.6141 22.3294C69.6625 22.3408 69.708 22.3626 69.7477 22.3933C69.7874 22.424 69.8204 22.4629 69.8446 22.5075L70.8483 24.4222C70.8875 24.497 70.9 24.5834 70.8838 24.6667C70.8676 24.75 70.8237 24.8248 70.7595 24.8784C69.2164 26.0833 67.331 26.7342 65.3931 26.731C60.777 26.731 57.9174 23.3104 57.9174 19.245C57.9174 14.85 60.8373 11.7651 64.9835 11.7651ZM67.6573 17.4824C67.6028 15.5483 66.4299 14.5106 64.9018 14.5106C63.1264 14.5106 61.9014 15.6322 61.5735 17.4824H67.6573Z" fill="#3F0975"/>
<path d="M73.1404 22.4866C73.1674 22.4444 73.2026 22.4084 73.2439 22.3809C73.2851 22.3535 73.3315 22.3351 73.38 22.327C73.4285 22.3188 73.4781 22.3212 73.5257 22.3338C73.5733 22.3464 73.6178 22.369 73.6564 22.4002C74.2033 22.8467 75.4768 23.7079 77.154 23.7079C78.1364 23.7079 78.9827 23.259 78.9827 22.4185C78.9827 20.2873 72.216 20.5683 72.216 15.9713C72.216 13.3073 74.5347 11.7649 77.5422 11.7649C80.0077 11.7649 81.4789 12.7697 81.9962 13.2003C82.057 13.253 82.0987 13.3252 82.1148 13.4053C82.1309 13.4854 82.1204 13.5687 82.0849 13.6419L81.1179 15.6307C81.0951 15.6773 81.0628 15.7182 81.0233 15.7509C80.9838 15.7835 80.938 15.8071 80.8889 15.82C80.8397 15.8329 80.7885 15.8348 80.7386 15.8257C80.6887 15.8165 80.6413 15.7965 80.5995 15.767C79.6906 15.1298 78.6152 14.7905 77.515 14.7938C76.6143 14.7938 75.7396 15.1867 75.7396 16.0833C75.7396 18.1025 82.5063 17.8495 82.5063 22.4477C82.5063 24.8307 80.4871 26.738 77.186 26.738C74.4057 26.738 72.6101 25.3842 72.0089 24.8489C71.9456 24.7909 71.9046 24.7116 71.8934 24.6252C71.8821 24.5389 71.9012 24.4513 71.9473 24.3782L73.1404 22.4866Z" fill="#3F0975"/>
<path d="M84.5263 12.1021H87.1469C87.241 12.1021 87.3314 12.1405 87.3979 12.209C87.4645 12.2774 87.502 12.3702 87.502 12.467V13.7564C87.5014 14.0845 87.4829 14.4122 87.4463 14.7381H87.502C88.102 13.5326 89.6325 11.7651 92.4388 11.7651C95.5221 11.7651 97.2679 13.4195 97.2679 17.2051V26.0376C97.2679 26.1344 97.2305 26.2272 97.1639 26.2957C97.0973 26.3641 97.007 26.4025 96.9129 26.4025H94.1775C94.0834 26.4025 93.993 26.3641 93.9264 26.2957C93.8599 26.2272 93.8224 26.1344 93.8224 26.0376V17.9337C93.8224 16.1954 93.3857 15.0142 91.6126 15.0142C89.7579 15.0142 88.3932 16.2197 87.8748 17.9337C87.6946 18.5516 87.6119 19.1951 87.6298 19.8399V26.0437C87.6298 26.1405 87.5924 26.2333 87.5258 26.3017C87.4592 26.3702 87.3689 26.4086 87.2747 26.4086H84.5263C84.4322 26.4086 84.3419 26.3702 84.2753 26.3017C84.2087 26.2333 84.1713 26.1405 84.1713 26.0437V12.4658C84.1716 12.3692 84.2091 12.2767 84.2757 12.2085C84.3422 12.1404 84.4324 12.1021 84.5263 12.1021Z" fill="#3F0975"/>
<path d="M106.391 11.7651C110.652 11.7651 114.057 14.878 114.057 19.2523C114.057 23.6534 110.647 26.7383 106.42 26.7383C102.159 26.7383 98.7533 23.6534 98.7533 19.2523C98.7533 14.878 102.163 11.7651 106.391 11.7651ZM106.424 23.7069C108.66 23.7069 110.543 21.9127 110.543 19.2499C110.543 16.6139 108.66 14.7916 106.424 14.7916C104.159 14.7916 102.282 16.6163 102.282 19.2499C102.272 21.9151 104.154 23.7069 106.424 23.7069Z" fill="#3F0975"/>
<path d="M114.208 12.1028H117.113C117.191 12.1027 117.267 12.1291 117.329 12.1779C117.391 12.2268 117.436 12.2953 117.456 12.3728L119.814 21.4961C119.935 21.9946 120.026 22.5004 120.086 23.0106H120.141C120.141 23.0106 120.278 22.254 120.468 21.4961L122.954 12.3972C122.975 12.3209 123.02 12.2538 123.081 12.2059C123.143 12.1581 123.218 12.1321 123.295 12.132H125.842C125.92 12.1306 125.996 12.1556 126.059 12.2031C126.121 12.2506 126.167 12.3179 126.189 12.3947L128.674 21.4937C128.865 22.2515 128.974 23.0082 128.974 23.0082H129.029C129.029 23.0082 129.138 22.2515 129.329 21.4937L131.687 12.3704C131.707 12.2928 131.752 12.2243 131.814 12.1755C131.876 12.1267 131.952 12.1003 132.03 12.1003H134.88C134.935 12.1004 134.99 12.1138 135.039 12.1393C135.089 12.1649 135.132 12.2019 135.165 12.2475C135.198 12.2931 135.22 12.346 135.229 12.402C135.239 12.458 135.236 12.5154 135.22 12.5699L131.212 26.1405C131.19 26.2152 131.145 26.2806 131.084 26.327C131.022 26.3734 130.948 26.3984 130.872 26.3984H127.558C127.482 26.3983 127.408 26.3729 127.346 26.326C127.285 26.2791 127.24 26.2132 127.219 26.1381L124.947 18.2397C124.729 17.4819 124.592 16.6973 124.592 16.6973H124.532C124.455 17.218 124.346 17.7332 124.205 18.2397L121.935 26.1405C121.913 26.2156 121.868 26.2815 121.807 26.3284C121.746 26.3753 121.672 26.4007 121.595 26.4008H118.248C118.172 26.4006 118.098 26.3754 118.037 26.329C117.977 26.2826 117.932 26.2174 117.909 26.1429L113.87 12.5723C113.854 12.518 113.851 12.4606 113.86 12.4047C113.87 12.3488 113.892 12.296 113.925 12.2504C113.957 12.2049 114 12.1678 114.049 12.1422C114.099 12.1165 114.153 12.103 114.208 12.1028Z" fill="#3F0975"/>
<path d="M26.7885 10.3488C28.0096 10.3488 28.9995 9.33147 28.9995 8.07651C28.9995 6.82155 28.0096 5.8042 26.7885 5.8042C25.5674 5.8042 24.5775 6.82155 24.5775 8.07651C24.5775 9.33147 25.5674 10.3488 26.7885 10.3488Z" fill="#3F0975"/>
<path d="M18.3561 17.2606C18.3565 19.4452 17.7506 21.5846 16.6095 23.4277C15.4683 25.2708 13.8393 26.7411 11.9137 27.666C11.8664 27.6887 11.8143 27.6987 11.7622 27.6953C11.7101 27.6918 11.6597 27.675 11.6157 27.6463C11.5716 27.6175 11.5352 27.5779 11.5099 27.531C11.4847 27.4841 11.4713 27.4314 11.471 27.3778V27.3559C11.472 27.3088 11.4832 27.2626 11.5036 27.2206C11.5241 27.1785 11.5534 27.1416 11.5894 27.1126C12.6811 26.183 13.4672 24.9297 13.8402 23.5239C14.2132 22.1182 14.155 20.6283 13.6735 19.2578C13.192 17.8873 12.3107 16.7029 11.1499 15.8662C9.98905 15.0296 8.6053 14.5816 7.1875 14.5832V6.09613C7.18749 6.05366 7.19574 6.01161 7.21177 5.97246C7.22779 5.93331 7.25127 5.89785 7.28082 5.86815C7.31038 5.83846 7.34541 5.81514 7.38385 5.79956C7.4223 5.78398 7.46339 5.77645 7.50471 5.77743C10.412 5.86325 13.1721 7.1109 15.1984 9.25522C17.2248 11.3995 18.3576 14.2715 18.3561 17.2606Z" fill="#EE503F"/>
<path d="M7.18173 14.5781V19.6203C7.18192 19.7008 7.15231 19.7784 7.09891 19.8374C7.04551 19.8963 6.9723 19.9322 6.89412 19.9378C6.1046 19.9921 5.34515 20.2701 4.70001 20.741C4.05486 21.2119 3.54924 21.8572 3.23923 22.6055C2.92921 23.3537 2.82692 24.1755 2.94369 24.9799C3.06046 25.7842 3.39173 26.5396 3.90076 27.1622C3.94858 27.2204 3.97498 27.294 3.97533 27.3702C3.97518 27.4269 3.96031 27.4826 3.93225 27.5314C3.90419 27.5802 3.86396 27.6205 3.81571 27.648C3.76746 27.6755 3.71294 27.6893 3.65777 27.688C3.60261 27.6866 3.54879 27.6701 3.50188 27.6403C2.24098 26.8202 1.27325 25.6015 0.744266 24.1676C0.215284 22.7336 0.153651 21.1619 0.568638 19.6889C0.983625 18.2158 1.85279 16.9211 3.0454 15.9994C4.23801 15.0777 5.68957 14.579 7.18173 14.5781Z" fill="#EE503F"/>
<path d="M5.48105 0.399407V8.54955C5.48116 8.59326 5.47249 8.63653 5.45558 8.67664C5.43867 8.71674 5.41388 8.75283 5.38277 8.78263C5.35166 8.81244 5.31489 8.83532 5.27478 8.84985C5.23466 8.86437 5.19206 8.87022 5.14964 8.86704C4.07433 8.78069 3.07026 8.28072 2.33789 7.46693C1.60552 6.65314 1.19873 5.58542 1.19873 4.47691C1.19873 3.36841 1.60552 2.30068 2.33789 1.4869C3.07026 0.673108 4.07433 0.173132 5.14964 0.0867817C5.19166 0.0836259 5.23387 0.0893387 5.27367 0.103569C5.31346 0.117799 5.35001 0.140245 5.38105 0.169528C5.41209 0.19881 5.43697 0.234309 5.45417 0.273842C5.47137 0.313375 5.48052 0.356106 5.48105 0.399407Z" fill="#EE503F"/>
</svg>
