<svg width="147" height="30" viewBox="0 0 147 30" fill="none" xmlns="http://www.w3.org/2000/svg">
<path d="M27.5662 12.7666H30.5566C30.6587 12.7666 30.7567 12.8072 30.829 12.8794C30.9012 12.9517 30.9418 13.0496 30.9418 13.1518V27.4763C30.9418 27.5785 30.9012 27.6765 30.829 27.7487C30.7567 27.821 30.6587 27.8615 30.5566 27.8615H27.5662C27.4641 27.8615 27.3661 27.821 27.2939 27.7487C27.2216 27.6765 27.181 27.5785 27.181 27.4763V13.1505C27.1814 13.0486 27.2221 12.9509 27.2943 12.879C27.3665 12.807 27.4643 12.7666 27.5662 12.7666Z" fill="white"/>
<path d="M34.0418 12.7651H36.8832C36.9854 12.7651 37.0834 12.8057 37.1556 12.8779C37.2278 12.9502 37.2684 13.0481 37.2684 13.1503V14.5114C37.2679 14.8576 37.2482 15.2035 37.2094 15.5476H37.2684C37.9194 14.2751 39.5796 12.4094 42.6252 12.4094C45.9699 12.4094 47.8638 14.1557 47.8638 18.1516V27.4748C47.8638 27.577 47.8232 27.675 47.7509 27.7472C47.6787 27.8194 47.5807 27.86 47.4786 27.86H44.5164C44.4143 27.86 44.3163 27.8194 44.2441 27.7472C44.1718 27.675 44.1312 27.577 44.1312 27.4748V18.9207C44.1312 17.0858 43.6575 15.839 41.7341 15.839C39.7208 15.839 38.2417 17.1115 37.6793 18.9207C37.4834 19.5728 37.3933 20.2521 37.4122 20.9327V27.4812C37.4122 27.5834 37.3716 27.6814 37.2994 27.7536C37.2272 27.8259 37.1292 27.8664 37.027 27.8664H34.0418C33.9396 27.8664 33.8417 27.8259 33.7694 27.7536C33.6972 27.6814 33.6566 27.5834 33.6566 27.4812V13.149C33.657 13.0471 33.6977 12.9494 33.7699 12.8775C33.8421 12.8055 33.9399 12.7651 34.0418 12.7651Z" fill="white"/>
<path d="M48.6798 12.7666H51.8217C51.9014 12.7666 51.9791 12.7912 52.0442 12.8372C52.1093 12.8832 52.1585 12.9483 52.185 13.0234L55.2281 22.1194C55.5247 23.0067 55.7314 24.3972 55.7609 24.3972H55.82C55.8495 24.3972 56.0562 23.0067 56.3528 22.1194L59.4022 13.0285C59.4288 12.9534 59.478 12.8884 59.5431 12.8424C59.6082 12.7964 59.6859 12.7717 59.7656 12.7717H62.9088C62.9703 12.7719 63.0309 12.7868 63.0855 12.8152C63.1401 12.8436 63.1871 12.8847 63.2225 12.935C63.258 12.9853 63.2809 13.0433 63.2893 13.1043C63.2977 13.1652 63.2914 13.2273 63.2709 13.2853L58.135 27.6111C58.1085 27.6861 58.0595 27.751 57.9946 27.797C57.9298 27.8429 57.8524 27.8677 57.7729 27.8679H53.8735C53.7942 27.8675 53.717 27.8425 53.6525 27.7966C53.5879 27.7506 53.5391 27.6859 53.5127 27.6111L48.3164 13.2815C48.2956 13.2233 48.2891 13.161 48.2975 13.0997C48.3058 13.0385 48.3288 12.9802 48.3644 12.9297C48.4001 12.8792 48.4473 12.838 48.5022 12.8096C48.5571 12.7813 48.618 12.7665 48.6798 12.7666Z" fill="white"/>
<path d="M70.4922 12.4094C74.8423 12.4094 77.1804 15.5771 77.1804 19.5717C77.1804 19.8465 77.147 20.3357 77.1214 20.6695C77.1133 20.766 77.0692 20.8559 76.9978 20.9214C76.9264 20.9868 76.833 21.023 76.7362 21.0226H66.675C66.9125 23.6561 68.954 25.0146 71.2022 25.0146C73.0178 25.0146 74.5508 24.0889 75.2082 23.6202C75.2524 23.5893 75.3026 23.5681 75.3555 23.5578C75.4084 23.5475 75.4629 23.5485 75.5154 23.5606C75.5679 23.5727 75.6173 23.5956 75.6604 23.628C75.7035 23.6604 75.7393 23.7015 75.7655 23.7486L76.8543 25.7696C76.8968 25.8486 76.9104 25.9398 76.8928 26.0277C76.8752 26.1156 76.8275 26.1946 76.758 26.2512C75.084 27.523 73.0388 28.2101 70.9365 28.2067C65.929 28.2067 62.8269 24.5961 62.8269 20.3049C62.8269 15.6657 65.9945 12.4094 70.4922 12.4094ZM73.3927 18.4443C73.3336 16.4027 72.0612 15.3075 70.4036 15.3075C68.4777 15.3075 67.1488 16.4913 66.7931 18.4443H73.3927Z" fill="white"/>
<path d="M79.3423 23.7268C79.3716 23.6822 79.4098 23.6443 79.4546 23.6153C79.4993 23.5862 79.5496 23.5668 79.6022 23.5583C79.6548 23.5497 79.7086 23.5522 79.7602 23.5655C79.8119 23.5788 79.8602 23.6027 79.9021 23.6356C80.4953 24.1068 81.8768 25.0159 83.6962 25.0159C84.7619 25.0159 85.68 24.5421 85.68 23.6549C85.68 21.4053 78.3395 21.7019 78.3395 16.8496C78.3395 14.0376 80.8548 12.4094 84.1174 12.4094C86.7919 12.4094 88.3878 13.47 88.9489 13.9246C89.0149 13.9802 89.0602 14.0564 89.0777 14.141C89.0951 14.2255 89.0837 14.3134 89.0452 14.3907L87.9962 16.49C87.9715 16.5391 87.9365 16.5824 87.8936 16.6168C87.8508 16.6513 87.801 16.6762 87.7477 16.6898C87.6945 16.7034 87.6389 16.7055 87.5847 16.6958C87.5306 16.6862 87.4792 16.665 87.4339 16.6338C86.4479 15.9612 85.2813 15.6031 84.0878 15.6066C83.1107 15.6066 82.1619 16.0214 82.1619 16.9677C82.1619 19.0992 89.5023 18.8321 89.5023 23.6857C89.5023 26.2011 87.3119 28.2144 83.7309 28.2144C80.7148 28.2144 78.7671 26.7853 78.1148 26.2203C78.0462 26.1591 78.0018 26.0754 77.9895 25.9842C77.9773 25.8931 77.998 25.8006 78.048 25.7234L79.3423 23.7268Z" fill="white"/>
<path d="M91.6935 12.7651H94.5363C94.6384 12.7651 94.7364 12.8057 94.8086 12.8779C94.8809 12.9502 94.9215 13.0481 94.9215 13.1503V14.5114C94.9209 14.8576 94.9007 15.2036 94.8611 15.5476H94.9215C95.5724 14.2751 97.2326 12.4094 100.277 12.4094C103.622 12.4094 105.516 14.1557 105.516 18.1516V27.4748C105.516 27.577 105.475 27.675 105.403 27.7472C105.33 27.8194 105.232 27.86 105.13 27.86H102.163C102.061 27.86 101.963 27.8194 101.891 27.7472C101.818 27.675 101.778 27.577 101.778 27.4748V18.9207C101.778 17.0858 101.304 15.839 99.3807 15.839C97.3687 15.839 95.8883 17.1115 95.3259 18.9207C95.1305 19.5729 95.0407 20.2522 95.0601 20.9327V27.4812C95.0601 27.5834 95.0195 27.6814 94.9473 27.7536C94.8751 27.8259 94.7771 27.8664 94.6749 27.8664H91.6935C91.5914 27.8664 91.4934 27.8259 91.4212 27.7536C91.3489 27.6814 91.3083 27.5834 91.3083 27.4812V13.149C91.3087 13.0471 91.3494 12.9494 91.4216 12.8775C91.4938 12.8055 91.5916 12.7651 91.6935 12.7651Z" fill="white"/>
<path d="M115.412 12.4094C120.034 12.4094 123.728 15.6952 123.728 20.3126C123.728 24.9581 120.029 28.2144 115.443 28.2144C110.82 28.2144 107.126 24.9581 107.126 20.3126C107.126 15.6952 110.825 12.4094 115.412 12.4094ZM115.448 25.0146C117.873 25.0146 119.916 23.1207 119.916 20.31C119.916 17.5275 117.873 15.6041 115.448 15.6041C112.99 15.6041 110.954 17.5301 110.954 20.31C110.943 23.1233 112.985 25.0146 115.448 25.0146Z" fill="white"/>
<path d="M123.891 12.7692H127.042C127.127 12.7691 127.209 12.797 127.276 12.8485C127.344 12.9 127.392 12.9724 127.414 13.0542L129.972 22.6844C130.104 23.2106 130.202 23.7445 130.267 24.283H130.326C130.326 24.283 130.475 23.4843 130.682 22.6844L133.378 13.0799C133.401 12.9994 133.45 12.9286 133.516 12.8781C133.583 12.8276 133.664 12.8001 133.748 12.8H136.511C136.596 12.7986 136.678 12.825 136.746 12.8751C136.814 12.9252 136.864 12.9963 136.887 13.0773L139.584 22.6818C139.791 23.4817 139.909 24.2804 139.909 24.2804H139.969C139.969 24.2804 140.087 23.4817 140.294 22.6818L142.851 13.0517C142.874 12.9698 142.922 12.8975 142.989 12.8459C143.057 12.7944 143.139 12.7665 143.224 12.7666H146.316C146.376 12.7667 146.435 12.7808 146.488 12.8077C146.542 12.8347 146.588 12.8738 146.624 12.922C146.66 12.9701 146.684 13.0259 146.694 13.085C146.705 13.1441 146.701 13.2048 146.684 13.2622L142.337 27.5868C142.312 27.6656 142.264 27.7346 142.197 27.7836C142.131 27.8326 142.051 27.859 141.968 27.859H138.373C138.29 27.8589 138.21 27.8321 138.143 27.7826C138.077 27.7331 138.028 27.6635 138.004 27.5842L135.541 19.247C135.304 18.4471 135.155 17.6189 135.155 17.6189H135.09C135.006 18.1686 134.888 18.7124 134.736 19.247L132.273 27.5868C132.249 27.6661 132.2 27.7356 132.134 27.7851C132.068 27.8346 131.987 27.8614 131.904 27.8615H128.273C128.191 27.8613 128.111 27.8348 128.045 27.7858C127.979 27.7368 127.93 27.668 127.906 27.5893L123.524 13.2648C123.507 13.2074 123.503 13.1469 123.513 13.0879C123.524 13.0289 123.548 12.9732 123.583 12.925C123.619 12.8769 123.665 12.8378 123.719 12.8107C123.772 12.7837 123.831 12.7695 123.891 12.7692Z" fill="white"/>
<path d="M29.06 10.9165C30.3846 10.9165 31.4584 9.84262 31.4584 8.51793C31.4584 7.19325 30.3846 6.11938 29.06 6.11938C27.7353 6.11938 26.6615 7.19325 26.6615 8.51793C26.6615 9.84262 27.7353 10.9165 29.06 10.9165Z" fill="white"/>
<path d="M19.9111 18.213C19.9116 20.519 19.2543 22.7772 18.0164 24.7227C16.7785 26.6682 15.0114 28.2202 12.9224 29.1965C12.8711 29.2204 12.8146 29.231 12.7581 29.2274C12.7016 29.2237 12.647 29.2059 12.5992 29.1756C12.5513 29.1453 12.5119 29.1035 12.4845 29.054C12.4571 29.0045 12.4425 28.9488 12.4422 28.8922V28.8691C12.4434 28.8195 12.4555 28.7707 12.4777 28.7263C12.4999 28.6819 12.5316 28.643 12.5706 28.6123C13.755 27.6311 14.6077 26.3082 15.0123 24.8243C15.417 23.3404 15.3538 21.7678 14.8315 20.3212C14.3092 18.8745 13.3531 17.6243 12.0939 16.7412C10.8346 15.8581 9.33355 15.3851 7.79553 15.3869V6.4283C7.79552 6.38346 7.80447 6.33908 7.82186 6.29775C7.83924 6.25643 7.86471 6.21899 7.89677 6.18765C7.92883 6.15631 7.96683 6.13169 8.00853 6.11525C8.05024 6.0988 8.09482 6.09086 8.13964 6.09189C11.2934 6.18247 14.2876 7.49944 16.4857 9.76289C18.6839 12.0263 19.9127 15.0578 19.9111 18.213Z" fill="#EE503F"/>
<path d="M7.79127 15.3831V20.7053C7.79147 20.7903 7.75935 20.8723 7.70142 20.9345C7.64349 20.9967 7.56407 21.0346 7.47926 21.0404C6.6228 21.0978 5.79895 21.3913 5.09911 21.8883C4.39926 22.3854 3.85077 23.0666 3.51447 23.8563C3.17817 24.6461 3.0672 25.5137 3.19387 26.3627C3.32054 27.2117 3.6799 28.009 4.2321 28.6662C4.28397 28.7277 4.31261 28.8054 4.31299 28.8858C4.31282 28.9457 4.29669 29.0044 4.26625 29.0559C4.23582 29.1075 4.19217 29.15 4.13983 29.179C4.08749 29.2081 4.02835 29.2226 3.9685 29.2212C3.90866 29.2198 3.85028 29.2024 3.7994 29.1709C2.43158 28.3052 1.38179 27.0189 0.807958 25.5053C0.234122 23.9916 0.167263 22.3326 0.617438 20.7777C1.06761 19.2228 2.01048 17.8562 3.30421 16.8833C4.59794 15.9104 6.17258 15.3839 7.79127 15.3831Z" fill="#EE503F"/>
<path d="M5.94681 0.415601V9.01853C5.94694 9.06467 5.93753 9.11034 5.91919 9.15268C5.90084 9.19501 5.87395 9.2331 5.8402 9.26456C5.80645 9.29603 5.76657 9.32018 5.72305 9.33551C5.67953 9.35084 5.63332 9.35702 5.5873 9.35366C4.42081 9.26251 3.33161 8.73476 2.53714 7.87576C1.74267 7.01677 1.30139 5.88972 1.30139 4.71963C1.30139 3.54955 1.74267 2.4225 2.53714 1.56351C3.33161 0.704508 4.42081 0.176756 5.5873 0.0856079C5.63289 0.0822767 5.67868 0.0883069 5.72185 0.103327C5.76502 0.118348 5.80466 0.142042 5.83833 0.172951C5.87201 0.20386 5.899 0.241331 5.91766 0.283061C5.93631 0.32479 5.94624 0.369895 5.94681 0.415601Z" fill="#EE503F"/>
</svg>
