<svg width="14" height="14" viewBox="0 0 14 14" fill="none" xmlns="http://www.w3.org/2000/svg">
<path d="M13 9.625C12.1 9.625 11.125 9.475 10.3 9.175H10.075C9.85 9.175 9.7 9.25 9.55 9.4L7.9 11.05C5.8 9.925 4 8.2 2.95 6.1L4.6 4.45C4.825 4.225 4.9 3.925 4.75 3.7C4.525 2.875 4.375 1.9 4.375 1C4.375 0.625 4 0.25 3.625 0.25H1C0.625 0.25 0.25 0.625 0.25 1C0.25 8.05 5.95 13.75 13 13.75C13.375 13.75 13.75 13.375 13.75 13V10.375C13.75 10 13.375 9.625 13 9.625ZM1.75 1.75H2.875C2.95 2.425 3.1 3.1 3.25 3.7L2.35 4.6C2.05 3.7 1.825 2.725 1.75 1.75ZM12.25 12.25C11.275 12.175 10.3 11.95 9.4 11.65L10.3 10.75C10.9 10.9 11.575 11.05 12.25 11.05V12.25Z" fill="#6B7280"/>
</svg>
