<svg width="304" height="304" viewBox="0 0 304 304" fill="none" xmlns="http://www.w3.org/2000/svg">
<path d="M152.116 303.883C122.055 303.906 92.6625 295.006 67.6611 278.311C42.6597 261.616 23.1736 237.876 11.67 210.097C0.166486 182.318 -2.83712 151.75 3.03955 122.263C8.91621 92.7756 23.4088 65.6956 44.6824 44.4517C60.5405 28.6079 79.707 16.4696 100.808 8.90719C121.908 1.34475 144.421 -1.45454 166.73 0.710001C189.04 2.87454 210.595 9.9493 229.849 21.4271C249.103 32.9048 265.58 48.5012 278.098 67.0981C290.616 85.695 298.865 106.832 302.253 128.993C305.642 151.154 304.087 173.791 297.699 195.28C291.311 216.769 280.248 236.578 265.304 253.287C250.36 269.996 231.905 283.192 211.262 291.927C192.552 299.852 172.435 303.919 152.116 303.883ZM152.116 26.5609C83.0179 26.5609 26.8266 82.7946 26.8266 151.875C26.8266 220.955 83.0494 277.228 152.116 277.228C221.183 277.228 277.445 221.002 277.445 151.914C277.445 82.8261 221.223 26.5609 152.116 26.5609Z" fill="#29064C"/>
<path d="M287.539 151.94C287.539 178.969 279.523 205.392 264.506 227.866C249.489 250.34 228.145 267.856 203.173 278.2C178.2 288.543 150.721 291.25 124.21 285.977C97.6998 280.703 73.3483 267.688 54.2352 248.575C35.1221 229.462 22.1059 205.111 16.8326 178.601C11.5593 152.092 14.2658 124.613 24.6097 99.6414C34.9536 74.6696 52.4705 53.3258 74.9451 38.3091C97.4197 23.2925 123.843 15.2773 150.873 15.2773C187.119 15.2773 221.88 29.6757 247.51 55.3049C273.14 80.9341 287.539 115.695 287.539 151.94Z" fill="#F9F8F6"/>
<path d="M254.359 75.4784L211.822 117.988C219.181 130.959 222.136 145.966 220.246 160.758C218.356 175.551 211.722 189.332 201.339 200.037L243.68 241.112C264.861 219.277 277.57 190.61 279.527 160.253C281.484 129.896 272.561 99.8351 254.359 75.4614V75.4784Z" fill="#5C0DAB"/>
<path d="M151.851 24.1065C131.943 24.0912 112.308 28.7281 94.51 37.6473C76.7124 46.5665 61.2454 59.5212 49.3427 75.4781L91.8704 117.988C97.8897 107.387 106.611 98.5708 117.147 92.4376C127.683 86.3044 139.656 83.0732 151.846 83.0732C164.037 83.0732 176.01 86.3044 186.546 92.4376C197.082 98.5708 205.803 107.387 211.823 117.988L254.359 75.4611C242.455 59.5068 226.987 46.555 209.189 37.6388C191.392 28.7225 171.757 24.0886 151.851 24.1065Z" fill="#B87AF5"/>
<path d="M157.377 167.22C154.38 168.484 151.077 168.83 147.884 168.216C144.69 167.602 141.751 166.055 139.437 163.771C137.123 161.486 135.538 158.567 134.883 155.382C134.228 152.197 134.532 148.889 135.757 145.877C136.982 142.865 139.072 140.283 141.764 138.459C144.456 136.635 147.629 135.65 150.88 135.629C154.132 135.607 157.317 136.55 160.033 138.339C162.748 140.127 164.873 142.681 166.137 145.677C166.977 147.667 167.416 149.802 167.43 151.962C167.445 154.122 167.033 156.263 166.22 158.263C165.406 160.264 164.207 162.085 162.689 163.622C161.172 165.158 159.367 166.381 157.377 167.22Z" fill="#EB321E"/>
<path d="M202.631 65.7914C202.809 65.4858 202.571 65.0105 202.087 64.7219C201.604 64.4332 201.069 64.4502 200.89 64.7219L142.718 156.617L150.146 161.039L202.631 65.7914Z" fill="#EB321E"/>
<g style="mix-blend-mode:multiply">
<path d="M23.8785 152.05C23.8485 184.085 35.883 214.957 57.5867 238.521L101.048 198.626C91.1899 187.88 84.9912 174.287 83.3425 159.799C81.6938 145.31 84.68 130.672 91.872 117.986L49.3443 75.4766C32.7803 97.5663 23.843 124.44 23.8785 152.05Z" fill="#EBD9FC"/>
</g>
<path d="M155.782 28.7426C155.782 27.045 153.583 25.8226 151.843 27.8004V43.4275C153.583 45.4053 155.782 44.2084 155.782 42.4853V28.7426Z" fill="white"/>
<path d="M118.709 33.9943C118.638 33.7386 118.516 33.5 118.35 33.2929C118.184 33.0857 117.978 32.9142 117.744 32.7887C117.51 32.6632 117.253 32.5863 116.989 32.5626C116.724 32.5388 116.458 32.5688 116.205 32.6507C115.953 32.7326 115.719 32.8647 115.519 33.039C115.319 33.2134 115.156 33.4264 115.04 33.6653C114.925 33.9041 114.858 34.164 114.846 34.4291C114.833 34.6942 114.874 34.9592 114.966 35.2081L119.21 48.2802C119.339 48.6757 119.59 49.0202 119.927 49.2642C120.264 49.5082 120.67 49.6392 121.086 49.6384C121.294 49.6376 121.5 49.6032 121.697 49.5365C121.943 49.4567 122.17 49.3292 122.366 49.1613C122.563 48.9934 122.724 48.7884 122.84 48.5582C122.957 48.3279 123.027 48.0768 123.047 47.8193C123.066 47.5619 123.035 47.3031 122.954 47.0579L118.709 33.9943Z" fill="white"/>
<path d="M85.0789 50.444C84.9341 50.2185 84.7447 50.025 84.5225 49.8752C84.3003 49.7255 84.0498 49.6227 83.7864 49.5731C83.5231 49.5235 83.2524 49.5282 82.9909 49.5868C82.7294 49.6455 82.4826 49.7569 82.2657 49.9142C82.0488 50.0716 81.8662 50.2716 81.7293 50.5019C81.5923 50.7322 81.5038 50.9881 81.4692 51.2538C81.4345 51.5196 81.4545 51.7896 81.5278 52.0473C81.6012 52.3051 81.7263 52.5451 81.8957 52.7528L89.9683 63.8641C90.1467 64.1232 90.3849 64.3356 90.6626 64.4833C90.9404 64.6311 91.2496 64.7098 91.5642 64.7129C92.5489 64.7129 93.559 63.9744 93.7033 62.3447L85.0789 50.444Z" fill="white"/>
<path d="M70.0458 85.1024L57.3979 75.918C54.7919 76.1556 54.4693 78.6512 55.8529 79.6613L66.973 87.7338C67.3084 87.9777 67.7127 88.1085 68.1274 88.1073C69.3243 88.1073 70.4873 87.0207 70.0458 85.1024Z" fill="white"/>
<path d="M39.4097 113.293L52.4736 117.537C52.6705 117.603 52.8769 117.638 53.0848 117.639C54.5109 117.639 55.7757 116.068 54.5873 114.09L40.6236 109.549C40.134 109.412 39.6106 109.47 39.1628 109.711C38.7149 109.951 38.3773 110.355 38.2205 110.838C38.0638 111.322 38.1 111.847 38.3216 112.305C38.5432 112.762 38.9331 113.116 39.4097 113.293Z" fill="white"/>
<path d="M47.901 150.364C49.5987 150.364 50.8211 148.165 48.8517 146.434H33.2158C31.2379 148.131 32.4518 150.364 34.1665 150.364H47.901Z" fill="white"/>
<path d="M53.3746 178.969L39.4109 183.51C38.9688 183.658 38.5935 183.958 38.3518 184.357C38.1102 184.755 38.0178 185.227 38.0911 185.687C38.1645 186.148 38.3988 186.567 38.7524 186.871C39.1059 187.175 39.5559 187.343 40.0221 187.347C40.2272 187.345 40.4307 187.311 40.6248 187.245L53.6972 183.001C55.327 182.5 55.7939 180.004 53.3746 178.969Z" fill="white"/>
<path d="M66.9735 209.068L55.0895 217.701C54.6736 219.619 55.828 220.697 57.0249 220.697C57.4396 220.699 57.844 220.568 58.1793 220.324L70.0634 211.691C70.6236 209.128 68.3571 208.058 66.9735 209.068Z" fill="white"/>
<path d="M252.542 217.701L239.886 208.508C237.271 208.754 236.957 211.241 238.349 212.251L249.461 220.324C249.796 220.569 250.2 220.7 250.615 220.697C251.804 220.697 252.967 219.619 252.542 217.701Z" fill="white"/>
<path d="M71.5826 64.9546C71.4923 64.8532 71.3819 64.7715 71.2584 64.7148C71.135 64.6582 71.0011 64.6276 70.8653 64.6252C70.7294 64.6227 70.5946 64.6484 70.4691 64.7006C70.3437 64.7528 70.2304 64.8304 70.1365 64.9285C70.0425 65.0266 69.9698 65.143 69.923 65.2706C69.8762 65.3981 69.8564 65.534 69.8646 65.6696C69.8729 65.8052 69.9091 65.9376 69.9711 66.0585C70.033 66.1794 70.1193 66.2862 70.2245 66.3722L77.0153 72.8997C77.105 72.9876 77.2112 73.0568 77.3277 73.1034C77.4443 73.1501 77.5689 73.1731 77.6944 73.1713C77.9619 73.1698 78.218 73.063 78.4075 72.8742C78.5899 72.6885 78.6922 72.4386 78.6922 72.1782C78.6922 71.9178 78.5899 71.6679 78.4075 71.4822L71.5826 64.9546Z" fill="white"/>
<path d="M48.9708 96.2139L57.4594 100.314C57.591 100.38 57.7364 100.415 57.8839 100.416C58.0634 100.41 58.2379 100.355 58.3878 100.256C58.5377 100.157 58.6572 100.018 58.7327 99.8554C58.7892 99.7401 58.8224 99.6147 58.8303 99.4865C58.8383 99.3584 58.8208 99.2299 58.779 99.1084C58.7373 98.987 58.6719 98.875 58.5868 98.7789C58.5016 98.6827 58.3983 98.6044 58.2828 98.5482L49.7942 94.4398C49.6769 94.376 49.5478 94.3368 49.4147 94.3245C49.2817 94.3122 49.1476 94.3271 49.0205 94.3683C48.8934 94.4094 48.7761 94.476 48.6755 94.564C48.575 94.652 48.4934 94.7595 48.4358 94.88C48.3781 95.0005 48.3456 95.1314 48.3402 95.2649C48.3347 95.3984 48.3565 95.5316 48.4042 95.6563C48.4519 95.7811 48.5244 95.8949 48.6175 95.9908C48.7105 96.0866 48.8221 96.1625 48.9454 96.2139H48.9708Z" fill="white"/>
<path d="M37.9679 131.17L47.3053 132.444H47.4411C47.7 132.461 47.955 132.374 48.1501 132.203C48.3451 132.032 48.4641 131.79 48.481 131.531C48.4979 131.272 48.4112 131.017 48.2401 130.822C48.069 130.627 47.8274 130.508 47.5685 130.491L38.231 129.21C37.9721 129.174 37.7095 129.242 37.501 129.399C37.2924 129.557 37.155 129.791 37.119 130.05C37.083 130.309 37.1513 130.571 37.3089 130.78C37.4665 130.989 37.7005 131.126 37.9594 131.162L37.9679 131.17Z" fill="white"/>
<path d="M38.3074 167.815L47.5939 166.117C47.7267 166.101 47.8547 166.057 47.9702 165.99C48.0857 165.922 48.1862 165.831 48.2655 165.724C48.3448 165.616 48.4014 165.493 48.4317 165.363C48.462 165.232 48.4654 165.097 48.4417 164.966C48.418 164.834 48.3677 164.708 48.2939 164.597C48.2201 164.485 48.1243 164.39 48.0124 164.316C47.9005 164.243 47.7748 164.193 47.643 164.17C47.5112 164.147 47.3761 164.151 47.2459 164.182L37.9594 165.879C37.7192 165.924 37.5044 166.057 37.3567 166.252C37.209 166.446 37.1389 166.689 37.1601 166.932C37.1812 167.176 37.2922 167.403 37.4712 167.569C37.6503 167.735 37.8848 167.829 38.1291 167.832L38.3074 167.815Z" fill="white"/>
<path d="M58.5457 196.775C58.42 196.547 58.21 196.378 57.9608 196.303C57.7116 196.229 57.4431 196.255 57.213 196.376L48.8941 200.841C48.7017 200.945 48.5494 201.111 48.4615 201.311C48.3735 201.512 48.3548 201.736 48.4083 201.948C48.4619 202.16 48.5846 202.348 48.7571 202.483C48.9297 202.618 49.1421 202.691 49.361 202.692C49.5239 202.69 49.6839 202.649 49.8279 202.573L58.1467 198.108C58.3761 197.984 58.547 197.774 58.6218 197.524C58.6966 197.274 58.6692 197.005 58.5457 196.775Z" fill="white"/>
<path d="M258.391 201.42L249.902 197.32C249.785 197.248 249.654 197.202 249.517 197.183C249.38 197.165 249.242 197.176 249.109 197.215C248.977 197.254 248.855 197.32 248.75 197.409C248.645 197.498 248.56 197.609 248.5 197.733C248.44 197.857 248.407 197.992 248.403 198.13C248.399 198.268 248.424 198.405 248.476 198.532C248.528 198.66 248.607 198.775 248.706 198.87C248.806 198.966 248.924 199.039 249.053 199.086L257.542 203.194C257.674 203.258 257.82 203.29 257.966 203.288C258.152 203.288 258.333 203.236 258.491 203.139C258.648 203.041 258.775 202.902 258.858 202.736C258.914 202.619 258.946 202.492 258.953 202.362C258.96 202.233 258.941 202.103 258.898 201.981C258.854 201.859 258.787 201.746 258.7 201.65C258.613 201.554 258.508 201.476 258.391 201.42Z" fill="white"/>
<path d="M269.654 165.635L260.316 164.353C260.057 164.317 259.795 164.385 259.586 164.543C259.378 164.701 259.24 164.935 259.204 165.194C259.168 165.452 259.237 165.715 259.394 165.924C259.552 166.132 259.786 166.269 260.045 166.305L269.382 167.579H269.518C269.777 167.596 270.032 167.509 270.227 167.338C270.422 167.167 270.541 166.925 270.558 166.666C270.575 166.407 270.488 166.152 270.317 165.957C270.146 165.762 269.904 165.643 269.645 165.626L269.654 165.635Z" fill="white"/>
<path d="M269.309 129.022L260.031 130.72C259.774 130.768 259.546 130.915 259.396 131.129C259.247 131.344 259.188 131.608 259.233 131.866C259.274 132.092 259.394 132.297 259.571 132.444C259.748 132.591 259.97 132.672 260.201 132.672H260.379L269.665 130.975C269.796 130.956 269.922 130.91 270.035 130.841C270.148 130.773 270.247 130.682 270.324 130.574C270.401 130.466 270.456 130.344 270.484 130.215C270.513 130.086 270.516 129.952 270.492 129.822C270.468 129.692 270.418 129.568 270.345 129.457C270.272 129.347 270.177 129.252 270.067 129.179C269.956 129.106 269.832 129.056 269.702 129.032C269.572 129.008 269.438 129.01 269.309 129.039V129.022Z" fill="white"/>
<path d="M248.943 100.045C249.026 100.199 249.148 100.328 249.297 100.419C249.446 100.51 249.617 100.56 249.792 100.563C249.955 100.562 250.115 100.521 250.259 100.444L258.578 95.979C258.756 95.8335 258.879 95.6299 258.923 95.4036C258.967 95.1773 258.93 94.9426 258.819 94.7406C258.708 94.5386 258.529 94.3819 258.315 94.298C258.1 94.2141 257.863 94.2082 257.644 94.2814L249.325 98.7462C249.107 98.8728 248.947 99.078 248.875 99.3195C248.804 99.5611 248.829 99.8207 248.943 100.045Z" fill="white"/>
<path d="M237.238 64.773C237.052 64.5905 236.802 64.4883 236.542 64.4883C236.281 64.4883 236.031 64.5905 235.846 64.773L229.318 71.5637C229.226 71.6538 229.153 71.7614 229.103 71.8802C229.053 71.999 229.027 72.1266 229.027 72.2555C229.027 72.3844 229.053 72.512 229.103 72.6308C229.153 72.7496 229.226 72.8572 229.318 72.9473C229.502 73.1261 229.749 73.2264 230.005 73.2274C230.137 73.2268 230.268 73.1993 230.389 73.1468C230.51 73.0943 230.619 73.0178 230.71 72.9218L237.238 66.1312C237.412 65.9481 237.509 65.7049 237.509 65.4521C237.509 65.1992 237.412 64.9561 237.238 64.773Z" fill="white"/>
<path d="M207.315 43.0954C207.199 43.039 207.072 43.0062 206.943 42.9987C206.814 42.9912 206.684 43.0093 206.562 43.0519C206.44 43.0945 206.327 43.1607 206.231 43.2468C206.134 43.3329 206.056 43.4372 205.999 43.5538L201.891 52.0421C201.78 52.2765 201.766 52.5452 201.851 52.79C201.937 53.0347 202.116 53.2357 202.349 53.3493C202.484 53.415 202.632 53.4498 202.782 53.4512C202.962 53.4448 203.136 53.3892 203.285 53.2904C203.435 53.1915 203.555 53.0533 203.631 52.891L207.74 44.4026C207.853 44.1724 207.872 43.9069 207.793 43.6627C207.714 43.4185 207.542 43.2149 207.315 43.0954Z" fill="white"/>
<path d="M172.155 31.7124C171.896 31.6786 171.633 31.7488 171.425 31.9078C171.216 32.0668 171.079 32.3017 171.043 32.5612L169.77 41.8984C169.752 42.0268 169.76 42.1574 169.793 42.2827C169.827 42.408 169.884 42.5254 169.963 42.6281C170.042 42.7308 170.141 42.8168 170.254 42.881C170.366 42.9451 170.49 42.9863 170.619 43.0019H170.755C170.991 43.0001 171.219 42.9134 171.397 42.7575C171.574 42.6017 171.69 42.3872 171.723 42.1531L173.004 32.8159C173.038 32.557 172.968 32.2953 172.808 32.0884C172.649 31.8815 172.414 31.7462 172.155 31.7124Z" fill="white"/>
<path d="M136.34 32.5508C136.324 32.418 136.28 32.29 136.213 32.1745C136.145 32.059 136.055 31.9586 135.947 31.8792C135.839 31.7999 135.716 31.7434 135.586 31.7131C135.456 31.6828 135.321 31.6794 135.189 31.703C135.057 31.7267 134.932 31.777 134.82 31.8508C134.708 31.9246 134.613 32.0204 134.54 32.1323C134.466 32.2442 134.416 32.3699 134.393 32.5017C134.37 32.6335 134.374 32.7686 134.405 32.8988L136.103 42.1851C136.137 42.4184 136.253 42.632 136.43 42.7875C136.608 42.943 136.834 43.0304 137.07 43.0339H137.249C137.505 42.9865 137.732 42.8392 137.88 42.6243C138.028 42.4094 138.085 42.1446 138.038 41.888L136.34 32.5508Z" fill="white"/>
<path d="M101.395 43.6215C101.335 43.5074 101.253 43.4064 101.154 43.3243C101.054 43.2422 100.94 43.1808 100.816 43.1437C100.693 43.1065 100.563 43.0944 100.435 43.1079C100.307 43.1215 100.183 43.1604 100.07 43.2226C99.956 43.2833 99.8547 43.3659 99.7724 43.4657C99.69 43.5656 99.6281 43.6807 99.5903 43.8044C99.5524 43.9282 99.5394 44.0582 99.5518 44.1871C99.5643 44.3159 99.602 44.441 99.6629 44.5553L104.128 52.8654C104.211 53.0192 104.333 53.1483 104.482 53.2393C104.631 53.3303 104.802 53.3799 104.977 53.3832C105.14 53.3851 105.301 53.3441 105.444 53.2643C105.558 53.2046 105.659 53.1227 105.741 53.0234C105.823 52.9241 105.884 52.8094 105.921 52.6861C105.959 52.5628 105.971 52.4333 105.957 52.3052C105.944 52.1771 105.905 52.053 105.843 51.9401L101.395 43.6215Z" fill="white"/>
<path d="M268.219 183.51L254.247 178.969C251.845 180.004 252.303 182.474 253.933 183.001L267.006 187.245C267.2 187.312 267.403 187.346 267.608 187.347C268.074 187.343 268.524 187.175 268.878 186.871C269.232 186.567 269.466 186.148 269.539 185.687C269.613 185.227 269.52 184.755 269.278 184.357C269.037 183.958 268.662 183.658 268.219 183.51Z" fill="white"/>
<path d="M273.442 146.434H258.757C256.788 148.131 257.985 150.364 259.708 150.364H274.393C276.388 148.632 275.191 146.434 273.442 146.434Z" fill="white"/>
<path d="M254.546 117.64C254.753 117.639 254.96 117.605 255.157 117.538L268.221 113.294C269.851 112.759 270.317 110.298 267.898 109.262L253.069 114.092C251.863 116.07 253.12 117.64 254.546 117.64Z" fill="white"/>
<path d="M237.907 87.3014C238.087 87.5595 238.325 87.7712 238.603 87.9188C238.88 88.0664 239.189 88.1457 239.503 88.1502C239.918 88.1515 240.322 88.0207 240.658 87.7767L251.769 79.7043C253.161 78.6942 252.839 76.2071 250.224 75.9609L238.34 84.5936C237.93 84.9002 237.656 85.3543 237.575 85.8598C237.494 86.3652 237.613 86.8823 237.907 87.3014Z" fill="white"/>
<path d="M225.303 50.0063C224.88 49.7014 224.353 49.5758 223.838 49.6569C223.323 49.7379 222.861 50.0191 222.552 50.4392L213.945 62.3229C214.055 63.9696 215.074 64.7166 216.067 64.7166C216.382 64.7135 216.691 64.6348 216.969 64.4871C217.246 64.3393 217.484 64.1269 217.663 63.8678L225.735 52.7565C226.043 52.3344 226.17 51.8075 226.088 51.2918C226.007 50.7761 225.725 50.3137 225.303 50.0063Z" fill="white"/>
<path d="M188.921 33.9974L184.312 48.1135C184.513 48.5408 184.824 48.9068 185.214 49.1739C185.603 49.4409 186.057 49.5994 186.528 49.633C186.943 49.6346 187.348 49.5038 187.684 49.2596C188.019 49.0153 188.269 48.6704 188.395 48.2748L192.936 34.32C191.952 31.9008 189.448 32.3591 188.921 33.9974Z" fill="white"/>
<path d="M123.601 233.251V216.962H129.135C130.224 216.918 131.305 217.155 132.276 217.65C133.054 218.071 133.685 218.719 134.084 219.509C134.488 220.317 134.692 221.211 134.678 222.115C134.691 223.02 134.49 223.916 134.093 224.729C133.695 225.521 133.068 226.175 132.293 226.605C131.33 227.105 130.253 227.345 129.169 227.301H125.222V225.552H129.11C129.838 225.583 130.563 225.428 131.215 225.103C131.72 224.824 132.124 224.394 132.369 223.872C132.61 223.319 132.735 222.722 132.735 222.119C132.735 221.516 132.61 220.919 132.369 220.366C132.125 219.845 131.716 219.419 131.206 219.152C130.544 218.829 129.812 218.677 129.076 218.711H125.57V233.251H123.601Z" fill="#3F0975"/>
<path d="M137.573 233.251V221.036H139.381V222.878H139.508C139.737 222.267 140.164 221.75 140.722 221.41C141.307 221.028 141.993 220.83 142.691 220.841H143.209H143.676V222.751L143.243 222.675C143.007 222.64 142.769 222.623 142.53 222.624C141.979 222.613 141.434 222.738 140.943 222.989C140.494 223.226 140.117 223.577 139.848 224.007C139.576 224.451 139.438 224.964 139.449 225.484V233.217L137.573 233.251Z" fill="#3F0975"/>
<path d="M150.485 233.507C149.476 233.534 148.48 233.266 147.62 232.735C146.761 232.204 146.075 231.434 145.647 230.519C145.161 229.485 144.923 228.351 144.951 227.209C144.923 226.058 145.162 224.916 145.647 223.873C146.083 222.958 146.769 222.185 147.626 221.644C148.484 221.103 149.476 220.816 150.49 220.816C151.503 220.816 152.496 221.103 153.353 221.644C154.21 222.185 154.896 222.958 155.332 223.873C155.813 224.918 156.051 226.058 156.029 227.209C156.052 228.351 155.814 229.483 155.332 230.519C154.904 231.436 154.217 232.207 153.356 232.738C152.494 233.269 151.497 233.536 150.485 233.507ZM150.485 231.809C151.228 231.839 151.959 231.615 152.557 231.173C153.106 230.728 153.523 230.141 153.762 229.475C154.271 227.998 154.271 226.394 153.762 224.917C153.521 224.253 153.104 223.666 152.557 223.219C151.949 222.799 151.228 222.574 150.49 222.574C149.751 222.574 149.03 222.799 148.423 223.219C147.875 223.666 147.459 224.253 147.217 224.917C146.697 226.392 146.697 228 147.217 229.475C147.456 230.141 147.873 230.728 148.423 231.173C149.016 231.618 149.744 231.846 150.485 231.818V231.809Z" fill="#3F0975"/>
<path d="M164.329 221.035V222.623H157.742V221.035H164.329ZM159.694 233.25V219.346C159.669 218.726 159.842 218.114 160.186 217.598C160.507 217.137 160.947 216.773 161.46 216.545C161.995 216.311 162.573 216.192 163.157 216.197C163.537 216.187 163.916 216.224 164.286 216.307C164.509 216.361 164.727 216.429 164.94 216.511L164.405 218.141L164.006 218.014C163.792 217.964 163.572 217.942 163.353 217.946C163.109 217.922 162.862 217.951 162.631 218.032C162.399 218.113 162.188 218.242 162.011 218.412C161.714 218.807 161.569 219.295 161.604 219.788V233.25H159.694Z" fill="#3F0975"/>
<path d="M167.927 219C167.576 219.004 167.237 218.87 166.984 218.626C166.859 218.512 166.758 218.374 166.69 218.219C166.621 218.064 166.585 217.896 166.585 217.726C166.584 217.557 166.619 217.389 166.688 217.234C166.757 217.079 166.858 216.94 166.984 216.827C167.239 216.587 167.576 216.453 167.927 216.453C168.277 216.453 168.614 216.587 168.869 216.827C168.994 216.94 169.094 217.079 169.161 217.234C169.229 217.39 169.262 217.557 169.259 217.726C169.261 217.895 169.227 218.063 169.16 218.218C169.093 218.373 168.993 218.512 168.869 218.626C168.616 218.87 168.278 219.004 167.927 219ZM166.967 233.252V221.037H168.843V233.252H166.967Z" fill="#3F0975"/>
<path d="M174.125 216.962V233.251H172.249V216.962H174.125Z" fill="#3F0975"/>
<path d="M119.222 260.134V243.845H124.731C125.812 243.802 126.887 244.024 127.864 244.49C128.636 244.882 129.27 245.501 129.68 246.264C130.076 247.054 130.277 247.927 130.266 248.811C130.282 249.695 130.081 250.569 129.68 251.357C129.273 252.113 128.641 252.724 127.872 253.106C126.9 253.557 125.836 253.773 124.765 253.734H120.309V251.951H124.697C125.419 251.98 126.137 251.85 126.802 251.569C127.302 251.349 127.711 250.966 127.965 250.483C128.221 249.954 128.346 249.372 128.33 248.785C128.342 248.198 128.214 247.616 127.957 247.088C127.708 246.588 127.299 246.188 126.794 245.95C126.126 245.659 125.4 245.523 124.672 245.551H121.2V260.092L119.222 260.134ZM126.862 252.817L130.868 260.134H128.577L124.638 252.817H126.862Z" fill="#3F0975"/>
<path d="M138.287 260.39C137.219 260.417 136.164 260.147 135.24 259.609C134.388 259.081 133.707 258.318 133.279 257.411C132.801 256.38 132.566 255.253 132.591 254.117C132.569 252.976 132.804 251.845 133.279 250.807C133.699 249.894 134.366 249.118 135.206 248.566C136.065 248.014 137.071 247.733 138.092 247.76C138.736 247.76 139.375 247.866 139.985 248.074C140.618 248.294 141.197 248.647 141.682 249.109C142.228 249.631 142.644 250.273 142.896 250.985C143.226 251.908 143.381 252.883 143.355 253.863V254.652H133.932V253.039H141.445C141.457 252.402 141.317 251.77 141.037 251.197C140.777 250.67 140.374 250.226 139.874 249.916C139.34 249.591 138.725 249.426 138.1 249.44C137.413 249.422 136.737 249.618 136.165 250C135.627 250.358 135.196 250.853 134.917 251.435C134.621 252.022 134.47 252.671 134.476 253.328V254.406C134.451 255.214 134.616 256.017 134.96 256.749C135.251 257.358 135.718 257.866 136.301 258.209C136.81 258.475 137.368 258.638 137.94 258.686C138.513 258.734 139.09 258.667 139.637 258.489C140.026 258.36 140.381 258.142 140.672 257.852C140.974 257.553 141.206 257.19 141.351 256.791L143.159 257.3C142.975 257.91 142.646 258.467 142.2 258.922C141.722 259.403 141.142 259.772 140.503 260C139.795 260.268 139.044 260.401 138.287 260.39Z" fill="#3F0975"/>
<path d="M154.864 250.653L153.166 251.128C153.054 250.824 152.897 250.538 152.699 250.28C152.476 249.991 152.184 249.764 151.851 249.618C151.43 249.426 150.971 249.336 150.509 249.354C149.85 249.33 149.198 249.508 148.642 249.864C148.418 250.001 148.233 250.194 148.104 250.422C147.975 250.651 147.906 250.908 147.903 251.171C147.895 251.382 147.936 251.592 148.025 251.784C148.114 251.976 148.246 252.144 148.413 252.274C148.89 252.606 149.43 252.834 150 252.945L151.817 253.395C152.725 253.567 153.568 253.987 154.253 254.609C154.523 254.884 154.735 255.213 154.873 255.573C155.012 255.934 155.075 256.319 155.059 256.705C155.07 257.38 154.858 258.039 154.457 258.581C154.017 259.16 153.431 259.612 152.759 259.888C151.969 260.219 151.119 260.381 150.263 260.364C149.169 260.395 148.09 260.1 147.165 259.515C146.76 259.246 146.413 258.898 146.148 258.491C145.882 258.083 145.702 257.626 145.62 257.147L147.394 256.705C147.53 257.297 147.873 257.821 148.362 258.182C148.919 258.535 149.571 258.707 150.229 258.675C150.967 258.713 151.698 258.517 152.317 258.114C152.549 257.972 152.74 257.773 152.875 257.538C153.01 257.302 153.084 257.036 153.09 256.765C153.095 256.565 153.059 256.367 152.983 256.183C152.907 255.999 152.793 255.833 152.649 255.695C152.258 255.363 151.787 255.14 151.282 255.05L149.245 254.566C148.321 254.407 147.464 253.979 146.783 253.335C146.256 252.764 145.975 252.007 146.002 251.23C145.99 250.573 146.192 249.929 146.579 249.397C146.997 248.849 147.55 248.419 148.184 248.149C148.91 247.84 149.694 247.686 150.484 247.699C151.496 247.64 152.499 247.918 153.336 248.489C154.063 249.029 154.599 249.787 154.864 250.653Z" fill="#3F0975"/>
<path d="M158.844 245.882C158.669 245.885 158.496 245.852 158.334 245.787C158.172 245.721 158.025 245.624 157.902 245.501C157.778 245.386 157.68 245.248 157.613 245.093C157.546 244.939 157.511 244.773 157.511 244.605C157.511 244.437 157.546 244.271 157.613 244.117C157.68 243.962 157.778 243.824 157.902 243.709C158.157 243.47 158.494 243.336 158.844 243.336C159.194 243.336 159.531 243.47 159.786 243.709C159.912 243.822 160.012 243.961 160.081 244.115C160.149 244.269 160.185 244.436 160.185 244.605C160.185 244.774 160.149 244.941 160.081 245.095C160.012 245.249 159.912 245.387 159.786 245.501C159.663 245.624 159.515 245.721 159.354 245.787C159.192 245.852 159.018 245.885 158.844 245.882ZM157.893 260.134V247.911H159.769V260.134H157.893Z" fill="#3F0975"/>
<path d="M163.234 260.134V243.845H165.11V260.134H163.234ZM164.982 255.678V253.352H165.364L170.712 247.911H173.038L167.334 253.674H167.172L164.982 255.678ZM170.992 260.134L166.222 254.09L167.563 252.783L173.386 260.134H170.992Z" fill="#3F0975"/>
<path d="M179.87 260.387C178.849 260.411 177.843 260.136 176.975 259.598C176.134 259.061 175.461 258.3 175.031 257.399C174.572 256.352 174.335 255.22 174.335 254.076C174.335 252.932 174.572 251.801 175.031 250.753C175.452 249.832 176.137 249.057 176.997 248.523C177.858 247.99 178.858 247.723 179.87 247.757C180.892 247.736 181.899 248.007 182.773 248.538C183.616 249.076 184.288 249.845 184.708 250.753C185.167 251.801 185.404 252.932 185.404 254.076C185.404 255.22 185.167 256.352 184.708 257.399C184.284 258.301 183.613 259.063 182.773 259.598C181.901 260.135 180.893 260.409 179.87 260.387ZM179.87 258.69C180.614 258.722 181.346 258.494 181.941 258.045C182.493 257.604 182.909 257.015 183.138 256.347C183.658 254.872 183.658 253.264 183.138 251.789C182.905 251.122 182.49 250.534 181.941 250.091C181.347 249.64 180.615 249.409 179.87 249.437C179.127 249.407 178.397 249.638 177.807 250.091C177.258 250.536 176.841 251.123 176.602 251.789C176.081 253.264 176.081 254.872 176.602 256.347C176.837 257.014 177.255 257.602 177.807 258.045C178.397 258.497 179.127 258.729 179.87 258.698V258.69Z" fill="#3F0975"/>
</svg>
