<svg width="18" height="15" viewBox="0 0 18 15" fill="none" xmlns="http://www.w3.org/2000/svg">
<path d="M17.7166 1.99992C17.0749 2.29159 16.3833 2.48325 15.6666 2.57492C16.3999 2.13325 16.9666 1.43325 17.2333 0.591585C16.5416 1.00825 15.7749 1.29992 14.9666 1.46659C14.3083 0.749919 13.3833 0.333252 12.3333 0.333252C10.3749 0.333252 8.77493 1.93325 8.77493 3.90825C8.77493 4.19159 8.80827 4.46659 8.8666 4.72492C5.89993 4.57492 3.25826 3.14992 1.49993 0.991585C1.1916 1.51659 1.0166 2.13325 1.0166 2.78325C1.0166 4.02492 1.6416 5.12492 2.60826 5.74992C2.0166 5.74992 1.4666 5.58325 0.983264 5.33325V5.35825C0.983264 7.09158 2.2166 8.54158 3.84993 8.86658C3.32554 9.01009 2.77501 9.03006 2.2416 8.92492C2.46794 9.63532 2.91121 10.2569 3.50911 10.7024C4.10701 11.1478 4.82947 11.3947 5.57493 11.4083C4.31129 12.4086 2.74493 12.9493 1.13326 12.9416C0.849931 12.9416 0.566598 12.9249 0.283264 12.8916C1.8666 13.9083 3.74993 14.4999 5.7666 14.4999C12.3333 14.4999 15.9416 9.04992 15.9416 4.32492C15.9416 4.16659 15.9416 4.01658 15.9333 3.85825C16.6333 3.35825 17.2333 2.72492 17.7166 1.99992Z" fill="#D6B3F9"/>
</svg>
