<svg width="20" height="20" viewBox="0 0 20 20" fill="none" xmlns="http://www.w3.org/2000/svg">
<path d="M19.4 9.60015L10.4 0.600152C10 0.200152 9.5 0.000152588 9 0.000152588H2C0.9 0.000152588 0 0.900153 0 2.00015V9.00015C0 9.50015 0.2 10.0002 0.6 10.4002L9.6 19.4002C10 19.8002 10.5 20.0002 11 20.0002C11.5 20.0002 12 19.8002 12.4 19.4002L19.4 12.4002C19.8 12.0002 20 11.5002 20 11.0002C20 10.5002 19.8 10.0002 19.4 9.60015ZM11 18.0002L2 9.00015V2.00015H9L18 11.0002L11 18.0002ZM4.5 3.00015C5.3 3.00015 6 3.70015 6 4.50015C6 5.30015 5.3 6.00015 4.5 6.00015C3.7 6.00015 3 5.30015 3 4.50015C3 3.70015 3.7 3.00015 4.5 3.00015ZM8.1 6.90015L9.5 5.50015L15 11.0002L13.6 12.4002L8.1 6.90015ZM5.6 9.40015L7 8.00015L11 12.0002L9.6 13.4002L5.6 9.40015Z" fill="#6B7280"/>
</svg>
