<svg width="16" height="16" viewBox="0 0 16 16" fill="none" xmlns="http://www.w3.org/2000/svg">
<path d="M8.03156 0.500045C3.93656 0.500045 0.599063 3.83754 0.599063 7.93254C0.599063 9.24504 0.944063 10.52 1.58906 11.645L0.539062 15.5L4.47656 14.465C5.56406 15.0575 6.78656 15.3725 8.03156 15.3725C12.1266 15.3725 15.4641 12.035 15.4641 7.94004C15.4641 5.95254 14.6916 4.08504 13.2891 2.68254C12.6015 1.98799 11.7824 1.4373 10.8798 1.06258C9.97713 0.68787 9.0089 0.49664 8.03156 0.500045ZM8.03906 1.75254C9.68906 1.75254 11.2341 2.39754 12.4041 3.56754C12.9783 4.14156 13.4335 4.82328 13.7437 5.57362C14.0539 6.32395 14.2129 7.12813 14.2116 7.94004C14.2116 11.345 11.4366 14.1125 8.03156 14.1125C6.92156 14.1125 5.83406 13.82 4.88906 13.25L4.66406 13.1225L2.32406 13.7375L2.94656 11.4575L2.79656 11.2175C2.17702 10.234 1.84932 9.09491 1.85156 7.93254C1.85906 4.52754 4.62656 1.75254 8.03906 1.75254ZM5.39906 4.49754C5.27906 4.49754 5.07656 4.54254 4.90406 4.73004C4.73906 4.91754 4.25156 5.37504 4.25156 6.28254C4.25156 7.19754 4.91906 8.07504 5.00156 8.20254C5.10656 8.33004 6.32156 10.205 8.18906 11C8.63156 11.2025 8.97656 11.315 9.24656 11.3975C9.68906 11.54 10.0941 11.5175 10.4166 11.4725C10.7766 11.42 11.5116 11.0225 11.6691 10.5875C11.8266 10.1525 11.8266 9.78504 11.7816 9.70255C11.7291 9.62754 11.6091 9.58254 11.4216 9.50004C11.2341 9.39504 10.3191 8.94504 10.1541 8.88504C9.98156 8.82504 9.87656 8.79504 9.73406 8.97504C9.61406 9.16254 9.25406 9.58254 9.14906 9.70255C9.03656 9.83004 8.93156 9.84504 8.75156 9.75504C8.55656 9.65754 7.95656 9.46254 7.25156 8.83254C6.69656 8.33754 6.32906 7.73004 6.21656 7.54254C6.12656 7.36254 6.20906 7.25004 6.29906 7.16754C6.38156 7.08504 6.50156 6.95004 6.57656 6.83754C6.67406 6.73254 6.70406 6.65004 6.76406 6.53004C6.82406 6.40254 6.79406 6.29754 6.74906 6.20754C6.70406 6.12504 6.32906 5.19504 6.17156 4.82754C6.02156 4.46754 5.87156 4.51254 5.75156 4.50504C5.64656 4.50504 5.52656 4.49754 5.39906 4.49754Z" fill="#6B7280"/>
</svg>
