<svg width="1283" height="623" viewBox="0 0 1283 623" fill="none" xmlns="http://www.w3.org/2000/svg">
<g clip-path="url(#clip0_3_2235)">
<g style="mix-blend-mode:overlay" opacity="0.3">
<path d="M1283 -49.0015V622.678H0V250.408C33.08 250.408 63 263.288 86.51 287.638C103.31 305.038 114.7 325.698 124.75 343.928C144.01 378.858 149.45 383.828 159.43 383.828C161.91 383.828 166.51 383.828 175.2 372.218C185.03 359.088 195.2 337.368 205.54 314.388C218.54 285.648 231.92 255.938 251.69 230.888C279.69 195.408 316.19 176.658 357.25 176.658C388.67 176.658 433.88 188.208 470.8 243.218C491.14 273.528 505.25 310.628 518.9 346.508C540.45 403.148 560.16 449.998 583.15 449.998C603.15 449.998 614.15 435.998 639.15 378.628C649.61 354.628 660.43 329.808 676.15 308.948C699.89 277.378 731.32 260.688 767.03 260.688C828.77 260.688 857.26 303.858 874.28 329.638C890.89 354.798 893.5 355.638 904.55 355.638C910.38 355.638 923.3 351.048 944.38 320.278C962.95 293.178 981.13 255.848 1000.38 216.338C1028.99 157.578 1058.58 96.8285 1099.21 47.1485C1125.09 15.4985 1153.39 -8.59152 1183.34 -24.4515C1214.03 -40.7329 1248.26 -49.167 1283 -49.0015Z" fill="white"/>
</g>
<g style="mix-blend-mode:overlay" opacity="0.3">
<path d="M1283 -20.6484V622.682H0V278.762C25.57 278.762 47.82 288.372 66.12 307.332C80.31 322.032 90.28 340.122 99.93 357.622C119.14 392.462 131.38 412.172 159.43 412.172C190.27 412.172 207.18 379.642 231.37 326.052C243.64 298.872 256.37 270.772 273.94 248.452C296.69 219.632 324.72 205.002 357.25 205.002C392.93 205.002 423.25 223.172 447.25 259.002C465.78 286.622 479.31 322.182 492.4 356.572C520.4 430.142 541.83 478.362 583.14 478.362C623.69 478.362 641.14 444.972 665.14 389.972C674.95 367.472 685.14 344.202 698.79 325.972C717.23 301.452 740.19 289.022 767.02 289.022C813.5 289.022 834.95 321.512 850.62 345.242C867.4 370.662 877.42 383.932 904.54 383.932C950.24 383.932 986.97 308.522 1025.85 228.692C1053.75 171.402 1082.6 112.162 1121.13 65.0316C1168.33 7.39156 1221.25 -20.6484 1283 -20.6484Z" fill="white"/>
</g>
<g style="mix-blend-mode:overlay" opacity="0.3">
<path d="M1283.48 7.69995V622.7H0.52002V307.11C82 307.11 69.89 440.52 160 440.52C263.24 440.52 252.49 233.35 357.82 233.35C475.64 233.35 457.89 506.72 583.72 506.72C699.06 506.72 682.52 317.42 767.61 317.42C833.75 317.42 822.46 412.32 905.13 412.32C1046.5 412.32 1069.67 7.69995 1283.48 7.69995Z" fill="white"/>
</g>
</g>
<defs>
<clipPath id="clip0_3_2235">
<rect width="1283.48" height="671.68" fill="white" transform="translate(0 -49)"/>
</clipPath>
</defs>
</svg>
